<mxfile host="app.diagrams.net" modified="2024-07-17T12:03:17.568Z" agent="Mozilla/5.0 (Windows NT 10.0; Win64; x64) AppleWebKit/537.36 (KHTML, like Gecko) Chrome/126.0.0.0 Safari/537.36 Edg/126.0.0.0" etag="dopz6KDuMAsG49zgBbGj" version="24.7.1" type="github">
  <diagram name="Seite-1" id="jWWlKNwtXkpTY2JXqwrq">
    <mxGraphModel dx="1434" dy="947" grid="1" gridSize="10" guides="1" tooltips="1" connect="1" arrows="1" fold="1" page="1" pageScale="1" pageWidth="1654" pageHeight="1169" math="0" shadow="0">
      <root>
        <mxCell id="0" />
        <mxCell id="1" parent="0" />
        <mxCell id="IjDEWdTk8Mniyqk1HKGG-1" value="" style="shape=mxgraph.pid.pumps_-_iso.pump_(centrifugal);html=1;pointerEvents=1;align=center;verticalLabelPosition=bottom;verticalAlign=top;dashed=0;" vertex="1" parent="1">
          <mxGeometry x="640" y="350" width="100" height="100" as="geometry" />
        </mxCell>
        <mxCell id="IjDEWdTk8Mniyqk1HKGG-3" value="" style="verticalLabelPosition=bottom;align=center;html=1;verticalAlign=top;pointerEvents=1;dashed=0;shape=mxgraph.pid2valves.valve;valveType=ball" vertex="1" parent="1">
          <mxGeometry x="480" y="250" width="80" height="50" as="geometry" />
        </mxCell>
        <mxCell id="IjDEWdTk8Mniyqk1HKGG-4" value="" style="verticalLabelPosition=bottom;align=center;html=1;verticalAlign=top;pointerEvents=1;dashed=0;shape=mxgraph.pid2valves.valve;valveType=ball" vertex="1" parent="1">
          <mxGeometry x="480" y="490" width="80" height="50" as="geometry" />
        </mxCell>
        <mxCell id="IjDEWdTk8Mniyqk1HKGG-5" style="edgeStyle=orthogonalEdgeStyle;rounded=0;orthogonalLoop=1;jettySize=auto;html=1;exitX=0;exitY=0.5;exitDx=0;exitDy=0;exitPerimeter=0;entryX=1;entryY=0.533;entryDx=0;entryDy=0;entryPerimeter=0;endArrow=none;endFill=0;" edge="1" parent="1" source="IjDEWdTk8Mniyqk1HKGG-1" target="IjDEWdTk8Mniyqk1HKGG-3">
          <mxGeometry relative="1" as="geometry" />
        </mxCell>
        <mxCell id="IjDEWdTk8Mniyqk1HKGG-6" style="edgeStyle=orthogonalEdgeStyle;rounded=0;orthogonalLoop=1;jettySize=auto;html=1;exitX=0;exitY=0.5;exitDx=0;exitDy=0;exitPerimeter=0;entryX=1;entryY=0.5;entryDx=0;entryDy=0;entryPerimeter=0;endArrow=none;endFill=0;" edge="1" parent="1" source="IjDEWdTk8Mniyqk1HKGG-1" target="IjDEWdTk8Mniyqk1HKGG-4">
          <mxGeometry relative="1" as="geometry" />
        </mxCell>
        <mxCell id="IjDEWdTk8Mniyqk1HKGG-7" value="" style="verticalLabelPosition=bottom;align=center;dashed=0;html=1;verticalAlign=top;shape=mxgraph.pid.filters.liquid_filter_(fixed_bed);" vertex="1" parent="1">
          <mxGeometry x="471" y="780" width="160" height="280" as="geometry" />
        </mxCell>
        <mxCell id="IjDEWdTk8Mniyqk1HKGG-15" style="edgeStyle=orthogonalEdgeStyle;rounded=0;orthogonalLoop=1;jettySize=auto;html=1;exitX=0.938;exitY=1;exitDx=0;exitDy=0;exitPerimeter=0;" edge="1" parent="1" source="IjDEWdTk8Mniyqk1HKGG-8" target="IjDEWdTk8Mniyqk1HKGG-16">
          <mxGeometry relative="1" as="geometry">
            <mxPoint x="890" y="780" as="targetPoint" />
          </mxGeometry>
        </mxCell>
        <mxCell id="IjDEWdTk8Mniyqk1HKGG-21" style="edgeStyle=orthogonalEdgeStyle;rounded=0;orthogonalLoop=1;jettySize=auto;html=1;exitX=0.68;exitY=1;exitDx=0;exitDy=0;exitPerimeter=0;" edge="1" parent="1" source="IjDEWdTk8Mniyqk1HKGG-8" target="IjDEWdTk8Mniyqk1HKGG-20">
          <mxGeometry relative="1" as="geometry" />
        </mxCell>
        <mxCell id="IjDEWdTk8Mniyqk1HKGG-8" value="" style="verticalLabelPosition=bottom;aspect=fixed;html=1;verticalAlign=top;fillColor=strokeColor;align=center;outlineConnect=0;shape=mxgraph.fluid_power.x10400;points=[[0.68,0,0],[0.68,1,0],[0.938,0,0],[0.938,1,0],[0.81,1,0],[0.3,0.25,0],[0.425,0.75,0],[0.553,0.25,0],[0.553,0.75,0],[0.3,0.75,0]];rotation=-90;" vertex="1" parent="1">
          <mxGeometry x="657.58" y="932.4200000000001" width="232.62" height="120.19" as="geometry" />
        </mxCell>
        <mxCell id="IjDEWdTk8Mniyqk1HKGG-13" style="edgeStyle=orthogonalEdgeStyle;rounded=0;orthogonalLoop=1;jettySize=auto;html=1;exitX=0.938;exitY=0;exitDx=0;exitDy=0;exitPerimeter=0;entryX=0.5;entryY=0;entryDx=0;entryDy=0;entryPerimeter=0;endArrow=none;endFill=0;" edge="1" parent="1" source="IjDEWdTk8Mniyqk1HKGG-8" target="IjDEWdTk8Mniyqk1HKGG-7">
          <mxGeometry relative="1" as="geometry">
            <Array as="points">
              <mxPoint x="682" y="891" />
              <mxPoint x="682" y="730" />
              <mxPoint x="560" y="730" />
              <mxPoint x="560" y="780" />
            </Array>
          </mxGeometry>
        </mxCell>
        <mxCell id="IjDEWdTk8Mniyqk1HKGG-14" style="edgeStyle=orthogonalEdgeStyle;rounded=0;orthogonalLoop=1;jettySize=auto;html=1;exitX=0.68;exitY=0;exitDx=0;exitDy=0;exitPerimeter=0;entryX=0.5;entryY=1;entryDx=0;entryDy=0;entryPerimeter=0;endArrow=none;endFill=0;" edge="1" parent="1" source="IjDEWdTk8Mniyqk1HKGG-8" target="IjDEWdTk8Mniyqk1HKGG-7">
          <mxGeometry relative="1" as="geometry">
            <Array as="points">
              <mxPoint x="682" y="951" />
              <mxPoint x="682" y="1110" />
              <mxPoint x="560" y="1110" />
              <mxPoint x="560" y="1060" />
            </Array>
          </mxGeometry>
        </mxCell>
        <mxCell id="IjDEWdTk8Mniyqk1HKGG-16" value="Kanal" style="text;html=1;align=center;verticalAlign=middle;whiteSpace=wrap;rounded=0;" vertex="1" parent="1">
          <mxGeometry x="860" y="765" width="60" height="30" as="geometry" />
        </mxCell>
        <mxCell id="IjDEWdTk8Mniyqk1HKGG-17" style="edgeStyle=orthogonalEdgeStyle;rounded=0;orthogonalLoop=1;jettySize=auto;html=1;exitX=1;exitY=0.5;exitDx=0;exitDy=0;exitPerimeter=0;entryX=0.81;entryY=1;entryDx=0;entryDy=0;entryPerimeter=0;endArrow=none;endFill=0;" edge="1" parent="1" source="IjDEWdTk8Mniyqk1HKGG-1" target="IjDEWdTk8Mniyqk1HKGG-8">
          <mxGeometry relative="1" as="geometry">
            <Array as="points">
              <mxPoint x="980" y="400" />
              <mxPoint x="980" y="920" />
            </Array>
          </mxGeometry>
        </mxCell>
        <mxCell id="IjDEWdTk8Mniyqk1HKGG-18" value="" style="verticalLabelPosition=bottom;align=center;html=1;verticalAlign=top;pointerEvents=1;dashed=0;shape=mxgraph.pid2valves.valve;valveType=ball" vertex="1" parent="1">
          <mxGeometry x="1340" y="740" width="80" height="50" as="geometry" />
        </mxCell>
        <mxCell id="IjDEWdTk8Mniyqk1HKGG-19" value="" style="verticalLabelPosition=bottom;align=center;html=1;verticalAlign=top;pointerEvents=1;dashed=0;shape=mxgraph.pid2valves.valve;valveType=ball" vertex="1" parent="1">
          <mxGeometry x="1340" y="960" width="80" height="50" as="geometry" />
        </mxCell>
        <mxCell id="IjDEWdTk8Mniyqk1HKGG-20" value="" style="verticalLabelPosition=bottom;align=center;html=1;verticalAlign=top;pointerEvents=1;dashed=0;shape=mxgraph.pid2valves.valve;valveType=ball" vertex="1" parent="1">
          <mxGeometry x="1340" y="850" width="80" height="50" as="geometry" />
        </mxCell>
        <mxCell id="IjDEWdTk8Mniyqk1HKGG-22" style="edgeStyle=orthogonalEdgeStyle;rounded=0;orthogonalLoop=1;jettySize=auto;html=1;exitX=0.68;exitY=1;exitDx=0;exitDy=0;exitPerimeter=0;entryX=-0.062;entryY=0.54;entryDx=0;entryDy=0;entryPerimeter=0;" edge="1" parent="1" source="IjDEWdTk8Mniyqk1HKGG-8" target="IjDEWdTk8Mniyqk1HKGG-19">
          <mxGeometry relative="1" as="geometry" />
        </mxCell>
        <mxCell id="IjDEWdTk8Mniyqk1HKGG-24" style="edgeStyle=orthogonalEdgeStyle;rounded=0;orthogonalLoop=1;jettySize=auto;html=1;exitX=0.68;exitY=1;exitDx=0;exitDy=0;exitPerimeter=0;entryX=-0.012;entryY=0.5;entryDx=0;entryDy=0;entryPerimeter=0;" edge="1" parent="1" source="IjDEWdTk8Mniyqk1HKGG-8" target="IjDEWdTk8Mniyqk1HKGG-18">
          <mxGeometry relative="1" as="geometry" />
        </mxCell>
        <mxCell id="IjDEWdTk8Mniyqk1HKGG-25" value="" style="verticalLabelPosition=bottom;align=center;html=1;verticalAlign=top;pointerEvents=1;dashed=0;shape=mxgraph.pid2valves.valve;valveType=ball" vertex="1" parent="1">
          <mxGeometry x="1340" y="1060" width="80" height="50" as="geometry" />
        </mxCell>
        <mxCell id="IjDEWdTk8Mniyqk1HKGG-26" style="edgeStyle=orthogonalEdgeStyle;rounded=0;orthogonalLoop=1;jettySize=auto;html=1;exitX=0.68;exitY=1;exitDx=0;exitDy=0;exitPerimeter=0;entryX=-0.037;entryY=0.5;entryDx=0;entryDy=0;entryPerimeter=0;" edge="1" parent="1" source="IjDEWdTk8Mniyqk1HKGG-8" target="IjDEWdTk8Mniyqk1HKGG-25">
          <mxGeometry relative="1" as="geometry" />
        </mxCell>
        <mxCell id="IjDEWdTk8Mniyqk1HKGG-27" value="" style="verticalLabelPosition=bottom;aspect=fixed;html=1;verticalAlign=top;fillColor=strokeColor;align=center;outlineConnect=0;shape=mxgraph.fluid_power.x10460;points=[[0.6,0,0],[0.6,1,0],[0.8,0,0],[0.8,1,0],[0.7,1,0],[0.3,0.25,0],[0.3,0.75,0],[0.4,0.75,0],[0.5,0.25,0],[0.5,0.75,0],[0,0.625,0],[1,0.5,0],[1,0.625,0],[1,0.75,0]];rotation=-90;" vertex="1" parent="1">
          <mxGeometry x="827" y="1030" width="186" height="75.08" as="geometry" />
        </mxCell>
      </root>
    </mxGraphModel>
  </diagram>
</mxfile>
